<svg width="400" height="114" viewBox="0 0 400 114" fill="none" xmlns="http://www.w3.org/2000/svg">
<rect width="400" height="104" fill="white" fill-opacity="0.2"/>
<path d="M23 52C23 34.3269 37.3269 20 55 20H151C168.673 20 183 34.3269 183 52V52C183 69.6731 168.673 84 151 84H55C37.3269 84 23 69.6731 23 52V52Z" fill="url(#paint0_linear_6456_7844)" fill-opacity="0.25"/>
<path d="M55 21H151C168.121 21 182 34.8792 182 52C182 69.1208 168.121 83 151 83H55C37.8792 83 24 69.1208 24 52C24 34.8792 37.8792 21 55 21Z" stroke="white" stroke-opacity="0.05" stroke-width="2"/>
<path d="M58.0405 46.316L62.2805 46.236V47.388L60.7765 47.884L61.1125 47.404V57.5H58.4725L53.6405 48.652H53.9605V56.38L53.6245 55.9L55.1445 56.348V57.5H50.8885V56.348L52.4085 55.9L52.0725 56.38V47.42L52.2965 47.836L50.8885 47.468V46.316L54.7925 46.236L59.5445 54.908H59.2085V47.404L59.5605 47.868L58.0405 47.468V46.316ZM66.9313 57.692C66.1526 57.692 65.4699 57.532 64.8832 57.212C64.2966 56.8813 63.8379 56.396 63.5073 55.756C63.1873 55.1053 63.0273 54.316 63.0273 53.388C63.0273 52.428 63.1979 51.6067 63.5393 50.924C63.8913 50.2307 64.3819 49.6973 65.0113 49.324C65.6406 48.9507 66.3819 48.764 67.2352 48.764C68.0673 48.764 68.7446 48.9293 69.2673 49.26C69.7899 49.5907 70.1739 50.044 70.4193 50.62C70.6646 51.1853 70.7873 51.8253 70.7873 52.54C70.7873 52.7213 70.7766 52.9027 70.7552 53.084C70.7446 53.2653 70.7233 53.4573 70.6913 53.66H64.8353V52.332H68.7713L68.4833 52.54C68.4939 52.1133 68.4513 51.74 68.3553 51.42C68.2699 51.0893 68.1206 50.8333 67.9073 50.652C67.7046 50.4707 67.4219 50.38 67.0593 50.38C66.6433 50.38 66.3073 50.5027 66.0513 50.748C65.7953 50.9827 65.6086 51.3027 65.4913 51.708C65.3846 52.1133 65.3313 52.5667 65.3313 53.068C65.3313 53.6333 65.4006 54.14 65.5393 54.588C65.6779 55.036 65.9019 55.388 66.2113 55.644C66.5313 55.9 66.9473 56.028 67.4593 56.028C67.8219 56.028 68.2113 55.964 68.6273 55.836C69.0539 55.6973 69.4966 55.4947 69.9553 55.228L70.7073 56.428C70.0886 56.8547 69.4539 57.1747 68.8033 57.388C68.1633 57.5907 67.5393 57.692 66.9313 57.692ZM81.0305 49.02L84.4385 48.892V50.028L83.4465 50.348L83.7345 50.108L81.7025 57.532H79.2865L77.5585 50.652L77.9905 50.668L76.0385 57.532H73.6225L71.7345 50.204L71.9745 50.412L70.9985 50.172V49.02L74.7745 48.892V50.028L73.6065 50.348L73.8465 50.172L75.1905 56.188H74.8225L76.7265 49.004L79.0145 48.876L80.7745 56.268H80.4385L81.9105 50.22L82.1185 50.428L81.0305 50.172V49.02ZM92.706 57.692C91.8313 57.692 91.0313 57.4787 90.306 57.052C89.5807 56.6147 88.9993 55.9693 88.562 55.116C88.1247 54.252 87.906 53.1907 87.906 51.932C87.906 50.6947 88.1193 49.6387 88.546 48.764C88.9727 47.8893 89.5753 47.2173 90.354 46.748C91.1327 46.2787 92.0447 46.044 93.09 46.044C93.6447 46.044 94.2153 46.1133 94.802 46.252C95.3887 46.3907 96.018 46.5987 96.69 46.876L96.546 49.756H95.186L94.802 47.884L95.186 48.252C94.8127 48.1027 94.4553 47.9907 94.114 47.916C93.7727 47.8413 93.458 47.804 93.17 47.804C92.562 47.804 92.05 47.9587 91.634 48.268C91.218 48.5667 90.9033 49.004 90.69 49.58C90.4767 50.156 90.37 50.844 90.37 51.644C90.37 52.5827 90.4927 53.3667 90.738 53.996C90.994 54.6147 91.3407 55.0787 91.778 55.388C92.226 55.6867 92.7273 55.836 93.282 55.836C93.698 55.836 94.1353 55.7507 94.594 55.58C95.0633 55.3987 95.5327 55.1267 96.002 54.764L96.85 56.092C96.1887 56.6253 95.5007 57.0253 94.786 57.292C94.082 57.5587 93.3887 57.692 92.706 57.692ZM104.775 56.364L104.471 55.916L105.847 56.348V57.484L103.047 57.628L102.743 56.092L102.903 56.14C102.476 56.6627 102.012 57.052 101.511 57.308C101.009 57.564 100.492 57.692 99.9585 57.692C99.2758 57.692 98.7105 57.4733 98.2625 57.036C97.8145 56.5987 97.5905 55.9693 97.5905 55.148C97.5905 54.54 97.7185 54.06 97.9745 53.708C98.2412 53.3453 98.6252 53.084 99.1265 52.924C99.6278 52.764 100.236 52.684 100.951 52.684H102.695L102.535 52.86V51.804C102.535 51.3027 102.412 50.9453 102.167 50.732C101.932 50.5187 101.585 50.412 101.127 50.412C100.903 50.412 100.663 50.4333 100.407 50.476C100.151 50.5187 99.8732 50.5827 99.5745 50.668L99.7985 50.428L99.5905 51.724H98.1985L98.0705 49.388C98.7958 49.1747 99.4572 49.02 100.055 48.924C100.663 48.8173 101.217 48.764 101.719 48.764C102.711 48.764 103.468 48.9773 103.991 49.404C104.513 49.8307 104.775 50.492 104.775 51.388V56.364ZM99.8465 54.924C99.8465 55.3187 99.9372 55.612 100.119 55.804C100.311 55.9853 100.551 56.076 100.839 56.076C101.105 56.076 101.399 55.996 101.719 55.836C102.039 55.6653 102.343 55.436 102.631 55.148L102.535 55.532V53.708L102.695 53.868H101.319C100.764 53.868 100.38 53.9533 100.167 54.124C99.9532 54.2947 99.8465 54.5613 99.8465 54.924ZM109.615 57.692C108.879 57.692 108.319 57.4733 107.935 57.036C107.562 56.588 107.375 55.9267 107.375 55.052V50.156L107.663 50.444H106.127V49.244L107.695 48.876L107.375 49.26V47.084L109.631 46.684V49.26L109.391 48.956H111.823L111.791 50.444H109.391L109.631 50.156V54.748C109.631 55.2067 109.706 55.5373 109.855 55.74C110.005 55.9427 110.229 56.044 110.527 56.044C110.698 56.044 110.885 56.0173 111.087 55.964C111.301 55.9 111.53 55.82 111.775 55.724L112.191 56.956C111.295 57.4467 110.437 57.692 109.615 57.692ZM116.478 57.692C115.699 57.692 115.017 57.532 114.43 57.212C113.843 56.8813 113.385 56.396 113.054 55.756C112.734 55.1053 112.574 54.316 112.574 53.388C112.574 52.428 112.745 51.6067 113.086 50.924C113.438 50.2307 113.929 49.6973 114.558 49.324C115.187 48.9507 115.929 48.764 116.782 48.764C117.614 48.764 118.291 48.9293 118.814 49.26C119.337 49.5907 119.721 50.044 119.966 50.62C120.211 51.1853 120.334 51.8253 120.334 52.54C120.334 52.7213 120.323 52.9027 120.302 53.084C120.291 53.2653 120.27 53.4573 120.238 53.66H114.382V52.332H118.318L118.03 52.54C118.041 52.1133 117.998 51.74 117.902 51.42C117.817 51.0893 117.667 50.8333 117.454 50.652C117.251 50.4707 116.969 50.38 116.606 50.38C116.19 50.38 115.854 50.5027 115.598 50.748C115.342 50.9827 115.155 51.3027 115.038 51.708C114.931 52.1133 114.878 52.5667 114.878 53.068C114.878 53.6333 114.947 54.14 115.086 54.588C115.225 55.036 115.449 55.388 115.758 55.644C116.078 55.9 116.494 56.028 117.006 56.028C117.369 56.028 117.758 55.964 118.174 55.836C118.601 55.6973 119.043 55.4947 119.502 55.228L120.254 56.428C119.635 56.8547 119.001 57.1747 118.35 57.388C117.71 57.5907 117.086 57.692 116.478 57.692ZM125.019 61.372C123.686 61.372 122.694 61.196 122.043 60.844C121.393 60.492 121.067 59.9693 121.067 59.276C121.067 58.7427 121.249 58.2947 121.611 57.932C121.985 57.58 122.529 57.2867 123.243 57.052L123.211 57.5C122.806 57.468 122.475 57.3613 122.219 57.18C121.963 56.9987 121.835 56.7587 121.835 56.46C121.835 56.364 121.851 56.2627 121.883 56.156C121.915 56.0493 121.974 55.916 122.059 55.756C122.145 55.5853 122.262 55.3773 122.411 55.132C122.561 54.8867 122.747 54.5773 122.971 54.204L123.003 54.572C122.47 54.3267 122.065 53.98 121.787 53.532C121.51 53.084 121.371 52.5507 121.371 51.932C121.371 50.94 121.707 50.1667 122.379 49.612C123.062 49.0467 124.006 48.764 125.211 48.764C126.075 48.764 126.811 48.9133 127.419 49.212L126.907 49.116L129.579 49.02V50.22L128.315 50.476L128.459 50.236C128.619 50.428 128.742 50.652 128.827 50.908C128.913 51.164 128.955 51.4573 128.955 51.788C128.955 52.78 128.609 53.564 127.915 54.14C127.222 54.7053 126.289 54.988 125.115 54.988C124.561 54.988 124.027 54.9133 123.515 54.764L123.883 54.54L123.627 56.252L123.291 56.092H126.491C127.569 56.092 128.385 56.3 128.939 56.716C129.494 57.132 129.771 57.74 129.771 58.54C129.771 59.4573 129.371 60.156 128.571 60.636C127.782 61.1267 126.598 61.372 125.019 61.372ZM125.211 59.804C126.065 59.804 126.678 59.7133 127.051 59.532C127.435 59.3507 127.627 59.084 127.627 58.732C127.627 58.3907 127.499 58.14 127.243 57.98C126.987 57.82 126.619 57.74 126.139 57.74H123.355L123.883 57.628C123.307 57.9907 123.019 58.4013 123.019 58.86C123.019 59.1693 123.195 59.404 123.547 59.564C123.899 59.724 124.454 59.804 125.211 59.804ZM125.115 53.484C125.638 53.484 126.038 53.3453 126.315 53.068C126.593 52.7907 126.731 52.38 126.731 51.836C126.731 51.292 126.603 50.8973 126.347 50.652C126.091 50.396 125.707 50.268 125.195 50.268C124.673 50.268 124.278 50.4013 124.011 50.668C123.745 50.9347 123.611 51.3347 123.611 51.868C123.611 52.3907 123.739 52.7907 123.995 53.068C124.251 53.3453 124.625 53.484 125.115 53.484ZM134.517 48.764C135.776 48.764 136.757 49.1373 137.461 49.884C138.165 50.6307 138.517 51.692 138.517 53.068C138.517 54.028 138.347 54.8547 138.005 55.548C137.664 56.2307 137.173 56.7587 136.533 57.132C135.893 57.5053 135.125 57.692 134.229 57.692C132.971 57.692 131.995 57.3187 131.301 56.572C130.619 55.8253 130.277 54.764 130.277 53.388C130.277 52.428 130.443 51.6067 130.773 50.924C131.115 50.2307 131.6 49.6973 132.229 49.324C132.859 48.9507 133.621 48.764 134.517 48.764ZM134.405 50.364C133.797 50.364 133.344 50.604 133.045 51.084C132.747 51.5533 132.597 52.284 132.597 53.276C132.597 54.268 132.741 54.988 133.029 55.436C133.317 55.8733 133.755 56.092 134.341 56.092C134.768 56.092 135.115 55.9853 135.381 55.772C135.648 55.5587 135.851 55.2333 135.989 54.796C136.128 54.3587 136.197 53.82 136.197 53.18C136.197 52.2093 136.048 51.5 135.749 51.052C135.451 50.5933 135.003 50.364 134.405 50.364ZM139.48 57.5V56.348L140.776 55.98L140.552 56.316V50.172L140.808 50.556L139.48 50.156V49.004L142.296 48.876L142.584 50.396L142.296 50.332C142.776 49.8307 143.25 49.4467 143.72 49.18C144.189 48.9027 144.69 48.764 145.224 48.764C145.565 48.764 145.928 48.8173 146.312 48.924L146.168 51.836H144.856L144.632 50.156L144.84 50.588C144.776 50.5667 144.706 50.5507 144.632 50.54C144.568 50.5293 144.504 50.524 144.44 50.524C144.109 50.524 143.778 50.6253 143.448 50.828C143.128 51.0307 142.85 51.292 142.616 51.612L142.792 51.004V56.316L142.536 55.98L144.12 56.348V57.5H139.48ZM146.925 61.26L147.133 59.676C147.304 59.6973 147.458 59.7133 147.597 59.724C147.746 59.7347 147.885 59.74 148.013 59.74C148.482 59.74 148.861 59.644 149.149 59.452C149.448 59.2707 149.704 58.9827 149.917 58.588C150.141 58.204 150.36 57.7027 150.573 57.084L150.493 57.836L147.421 50.204L147.629 50.396L146.701 50.172V49.02L150.685 48.892V50.028L149.565 50.332L149.677 50.14L151.709 56.124L151.165 56.012L152.973 50.172L153.085 50.396L151.981 50.172V49.02L155.757 48.892V50.028L154.749 50.348L155.053 50.156L152.413 57.468C152.189 58.0867 151.949 58.636 151.693 59.116C151.437 59.596 151.144 60.0013 150.813 60.332C150.493 60.6733 150.114 60.9293 149.677 61.1C149.25 61.2813 148.749 61.372 148.173 61.372C147.8 61.372 147.384 61.3347 146.925 61.26Z" fill="white"/>
<path d="M196.423 48.812C197.66 48.812 198.62 49.1853 199.303 49.932C199.996 50.668 200.343 51.7187 200.343 53.084C200.343 54.0333 200.172 54.8493 199.831 55.532C199.5 56.2147 199.02 56.7427 198.391 57.116C197.772 57.4893 197.026 57.676 196.151 57.676C194.924 57.676 193.97 57.308 193.287 56.572C192.615 55.836 192.279 54.78 192.279 53.404C192.279 52.4547 192.444 51.6387 192.775 50.956C193.106 50.2733 193.58 49.7453 194.199 49.372C194.818 48.9987 195.559 48.812 196.423 48.812ZM196.327 50.188C195.655 50.188 195.143 50.4493 194.791 50.972C194.45 51.4947 194.279 52.2733 194.279 53.308C194.279 54.3427 194.444 55.1 194.775 55.58C195.106 56.06 195.596 56.3 196.247 56.3C196.716 56.3 197.106 56.1827 197.415 55.948C197.724 55.7027 197.959 55.3507 198.119 54.892C198.279 54.4227 198.359 53.852 198.359 53.18C198.359 52.1773 198.183 51.4307 197.831 50.94C197.49 50.4387 196.988 50.188 196.327 50.188ZM201.434 57.5V56.508L202.762 56.156L202.57 56.46V50.06L202.794 50.396L201.434 50.028V49.036L204.058 48.908L204.314 50.444L204.058 50.38C204.538 49.8787 205.007 49.4947 205.466 49.228C205.935 48.9507 206.442 48.812 206.986 48.812C207.327 48.812 207.685 48.8653 208.058 48.972L207.93 51.66H206.794L206.586 50.012L206.762 50.396C206.698 50.3747 206.629 50.3587 206.554 50.348C206.479 50.3373 206.405 50.332 206.33 50.332C205.967 50.332 205.61 50.444 205.258 50.668C204.917 50.8813 204.607 51.164 204.33 51.516L204.49 50.988V56.46L204.25 56.156L205.882 56.508V57.5H201.434Z" fill="white" fill-opacity="0.7"/>
<g filter="url(#filter0_dii_6456_7844)">
<rect x="217" y="20" width="160" height="64" rx="32" fill="#5A7DAB" shape-rendering="crispEdges"/>
<rect x="217" y="20" width="160" height="64" rx="32" fill="url(#paint1_linear_6456_7844)" style="mix-blend-mode:overlay" shape-rendering="crispEdges"/>
<rect x="218" y="21" width="158" height="62" rx="31" stroke="white" stroke-opacity="0.4" stroke-width="2" shape-rendering="crispEdges"/>
<path d="M254.849 57.5V56.348L256.321 55.932L256.033 56.38V47.42L256.433 47.9L254.849 47.468V46.316L258.417 46.236H259.969C261.249 46.236 262.214 46.5027 262.865 47.036C263.516 47.5693 263.841 48.3373 263.841 49.34C263.841 50.236 263.564 50.9773 263.009 51.564C262.465 52.1507 261.606 52.508 260.433 52.636L260.449 52.38C260.865 52.3907 261.206 52.4547 261.473 52.572C261.74 52.6893 261.958 52.8547 262.129 53.068C262.31 53.2707 262.476 53.516 262.625 53.804L263.905 56.268L263.249 55.868L264.721 56.348V57.5H262.097L260.657 54.412C260.465 54.0067 260.3 53.6973 260.161 53.484C260.022 53.26 259.852 53.1107 259.649 53.036C259.446 52.9507 259.153 52.9133 258.769 52.924H257.937L258.321 52.604V56.38L258.017 55.916L259.633 56.348V57.5H254.849ZM258.321 51.9L257.937 51.34H259.265C260.012 51.34 260.572 51.1853 260.945 50.876C261.318 50.5667 261.505 50.108 261.505 49.5C261.505 48.988 261.356 48.588 261.057 48.3C260.758 48.012 260.3 47.868 259.681 47.868H257.937L258.321 47.516V51.9ZM269.048 57.692C268.269 57.692 267.587 57.532 267 57.212C266.413 56.8813 265.955 56.396 265.624 55.756C265.304 55.1053 265.144 54.316 265.144 53.388C265.144 52.428 265.315 51.6067 265.656 50.924C266.008 50.2307 266.499 49.6973 267.128 49.324C267.757 48.9507 268.499 48.764 269.352 48.764C270.184 48.764 270.861 48.9293 271.384 49.26C271.907 49.5907 272.291 50.044 272.536 50.62C272.781 51.1853 272.904 51.8253 272.904 52.54C272.904 52.7213 272.893 52.9027 272.872 53.084C272.861 53.2653 272.84 53.4573 272.808 53.66H266.952V52.332H270.888L270.6 52.54C270.611 52.1133 270.568 51.74 270.472 51.42C270.387 51.0893 270.237 50.8333 270.024 50.652C269.821 50.4707 269.539 50.38 269.176 50.38C268.76 50.38 268.424 50.5027 268.168 50.748C267.912 50.9827 267.725 51.3027 267.608 51.708C267.501 52.1133 267.448 52.5667 267.448 53.068C267.448 53.6333 267.517 54.14 267.656 54.588C267.795 55.036 268.019 55.388 268.328 55.644C268.648 55.9 269.064 56.028 269.576 56.028C269.939 56.028 270.328 55.964 270.744 55.836C271.171 55.6973 271.613 55.4947 272.072 55.228L272.824 56.428C272.205 56.8547 271.571 57.1747 270.92 57.388C270.28 57.5907 269.656 57.692 269.048 57.692ZM273.749 61.18V60.028L275.109 59.58L274.821 59.964V50.252L275.077 50.556L273.749 50.156V49.004L276.565 48.876L276.821 50.268L276.565 50.14C277.066 49.692 277.552 49.3507 278.021 49.116C278.501 48.8813 278.997 48.764 279.509 48.764C280.128 48.764 280.672 48.9293 281.141 49.26C281.61 49.58 281.978 50.06 282.245 50.7C282.522 51.3293 282.661 52.1027 282.661 53.02C282.661 54.0547 282.485 54.9187 282.133 55.612C281.781 56.3053 281.285 56.828 280.645 57.18C280.016 57.5213 279.28 57.692 278.437 57.692C278.181 57.692 277.914 57.6707 277.637 57.628C277.36 57.596 277.072 57.548 276.773 57.484L277.061 57.228V59.964L276.821 59.628L278.309 60.028V61.18H273.749ZM278.149 56.108C278.906 56.108 279.456 55.852 279.797 55.34C280.149 54.828 280.325 54.1293 280.325 53.244C280.325 52.6573 280.256 52.156 280.117 51.74C279.978 51.3133 279.786 50.988 279.541 50.764C279.296 50.5293 278.992 50.412 278.629 50.412C278.352 50.412 278.058 50.4867 277.749 50.636C277.44 50.7853 277.12 51.0147 276.789 51.324L277.061 50.732V56.316L276.789 55.884C277.29 56.0333 277.744 56.108 278.149 56.108ZM286.716 56.188L286.556 55.996L287.788 56.348V57.5H283.42V56.348L284.652 55.996L284.476 56.188V46.508L284.62 46.668L283.42 46.332V45.18L286.716 45.052V56.188ZM295.657 56.364L295.353 55.916L296.729 56.348V57.484L293.929 57.628L293.625 56.092L293.785 56.14C293.358 56.6627 292.894 57.052 292.393 57.308C291.891 57.564 291.374 57.692 290.841 57.692C290.158 57.692 289.593 57.4733 289.145 57.036C288.697 56.5987 288.473 55.9693 288.473 55.148C288.473 54.54 288.601 54.06 288.857 53.708C289.123 53.3453 289.507 53.084 290.009 52.924C290.51 52.764 291.118 52.684 291.833 52.684H293.577L293.417 52.86V51.804C293.417 51.3027 293.294 50.9453 293.049 50.732C292.814 50.5187 292.467 50.412 292.009 50.412C291.785 50.412 291.545 50.4333 291.289 50.476C291.033 50.5187 290.755 50.5827 290.457 50.668L290.681 50.428L290.473 51.724H289.081L288.953 49.388C289.678 49.1747 290.339 49.02 290.937 48.924C291.545 48.8173 292.099 48.764 292.601 48.764C293.593 48.764 294.35 48.9773 294.873 49.404C295.395 49.8307 295.657 50.492 295.657 51.388V56.364ZM290.729 54.924C290.729 55.3187 290.819 55.612 291.001 55.804C291.193 55.9853 291.433 56.076 291.721 56.076C291.987 56.076 292.281 55.996 292.601 55.836C292.921 55.6653 293.225 55.436 293.513 55.148L293.417 55.532V53.708L293.577 53.868H292.201C291.646 53.868 291.262 53.9533 291.049 54.124C290.835 54.2947 290.729 54.5613 290.729 54.924ZM296.557 61.26L296.765 59.676C296.936 59.6973 297.09 59.7133 297.229 59.724C297.378 59.7347 297.517 59.74 297.645 59.74C298.114 59.74 298.493 59.644 298.781 59.452C299.08 59.2707 299.336 58.9827 299.549 58.588C299.773 58.204 299.992 57.7027 300.205 57.084L300.125 57.836L297.053 50.204L297.261 50.396L296.333 50.172V49.02L300.317 48.892V50.028L299.197 50.332L299.309 50.14L301.341 56.124L300.797 56.012L302.605 50.172L302.717 50.396L301.613 50.172V49.02L305.389 48.892V50.028L304.381 50.348L304.685 50.156L302.045 57.468C301.821 58.0867 301.581 58.636 301.325 59.116C301.069 59.596 300.776 60.0013 300.445 60.332C300.125 60.6733 299.746 60.9293 299.309 61.1C298.882 61.2813 298.381 61.372 297.805 61.372C297.432 61.372 297.016 61.3347 296.557 61.26Z" fill="white"/>
<path d="M343.496 41.6252C343.496 41.1169 344.071 40.8211 344.484 41.1164L351.184 45.9026C351.533 46.1518 351.533 46.6699 351.184 46.9192L344.484 51.7053C344.071 52.0005 343.496 51.7046 343.496 51.1965V48.9114C341.013 48.9134 339 50.9274 339 53.4114C339 55.8966 341.015 57.9114 343.5 57.9114C345.687 57.9112 347.511 56.3503 347.916 54.2815C348.009 53.8072 348.392 53.4114 348.875 53.4114H352.125C352.608 53.4115 353.004 53.8043 352.96 54.2854C352.519 59.1221 348.452 62.9112 343.5 62.9114C338.253 62.9114 334 58.6581 334 53.4114C334 48.166 338.251 43.9134 343.496 43.9114V41.6252Z" fill="white"/>
</g>
<defs>
<filter id="filter0_dii_6456_7844" x="202" y="12.8" width="190" height="101.2" filterUnits="userSpaceOnUse" color-interpolation-filters="sRGB">
<feFlood flood-opacity="0" result="BackgroundImageFix"/>
<feColorMatrix in="SourceAlpha" type="matrix" values="0 0 0 0 0 0 0 0 0 0 0 0 0 0 0 0 0 0 127 0" result="hardAlpha"/>
<feOffset dy="15"/>
<feGaussianBlur stdDeviation="7.5"/>
<feComposite in2="hardAlpha" operator="out"/>
<feColorMatrix type="matrix" values="0 0 0 0 0 0 0 0 0 0 0 0 0 0 0 0 0 0 0.4 0"/>
<feBlend mode="overlay" in2="BackgroundImageFix" result="effect1_dropShadow_6456_7844"/>
<feBlend mode="normal" in="SourceGraphic" in2="effect1_dropShadow_6456_7844" result="shape"/>
<feColorMatrix in="SourceAlpha" type="matrix" values="0 0 0 0 0 0 0 0 0 0 0 0 0 0 0 0 0 0 127 0" result="hardAlpha"/>
<feOffset dx="-6" dy="-13"/>
<feGaussianBlur stdDeviation="3.6"/>
<feComposite in2="hardAlpha" operator="arithmetic" k2="-1" k3="1"/>
<feColorMatrix type="matrix" values="0 0 0 0 0 0 0 0 0 0 0 0 0 0 0 0 0 0 0.3 0"/>
<feBlend mode="normal" in2="shape" result="effect2_innerShadow_6456_7844"/>
<feColorMatrix in="SourceAlpha" type="matrix" values="0 0 0 0 0 0 0 0 0 0 0 0 0 0 0 0 0 0 127 0" result="hardAlpha"/>
<feOffset dy="4"/>
<feGaussianBlur stdDeviation="2"/>
<feComposite in2="hardAlpha" operator="arithmetic" k2="-1" k3="1"/>
<feColorMatrix type="matrix" values="0 0 0 0 1 0 0 0 0 1 0 0 0 0 1 0 0 0 0.8 0"/>
<feBlend mode="normal" in2="effect2_innerShadow_6456_7844" result="effect3_innerShadow_6456_7844"/>
</filter>
<linearGradient id="paint0_linear_6456_7844" x1="95.2337" y1="68.6004" x2="95.2337" y2="20" gradientUnits="userSpaceOnUse">
<stop stop-color="white"/>
<stop offset="1" stop-color="white" stop-opacity="0"/>
</linearGradient>
<linearGradient id="paint1_linear_6456_7844" x1="289.234" y1="68.6004" x2="289.234" y2="20" gradientUnits="userSpaceOnUse">
<stop stop-opacity="0"/>
<stop offset="1"/>
</linearGradient>
</defs>
</svg>
