<svg width="201" height="83" viewBox="0 0 201 83" fill="none" xmlns="http://www.w3.org/2000/svg">
<path d="M8.73877 46.6699C8.73877 28.9968 23.0657 14.6699 40.7388 14.6699H168.739C186.412 14.6699 200.739 28.9968 200.739 46.6699C200.739 64.343 186.412 78.6699 168.739 78.6699H40.7388C23.0657 78.6699 8.73877 64.343 8.73877 46.6699Z" fill="#8C8C8C" fill-opacity="0.1"/>
<path d="M34.8335 53.2827H46.4976V55.3411H34.8335V53.2827Z" fill="#D9D9D9"/>
<path d="M34.8335 56.7133H46.4976C46.4976 57.8501 45.576 58.7717 44.4392 58.7717H36.8919C35.7551 58.7717 34.8335 57.8501 34.8335 56.7133Z" fill="#D9D9D9"/>
<path d="M37.2349 60.144H44.0962C44.0962 61.4702 43.021 62.5454 41.6947 62.5454H39.6364C38.3101 62.5454 37.2349 61.4702 37.2349 60.144Z" fill="#D9D9D9"/>
<g filter="url(#filter0_ddii_5814_27783)">
<path d="M50.6699 40.6699C50.6699 46.1928 46.5062 49.2183 46.5062 52.2828H34.8336C34.8336 49.057 30.6699 46.1928 30.6699 40.6699C30.6699 35.1471 35.1471 30.6699 40.6699 30.6699C46.1928 30.6699 50.6699 35.1471 50.6699 40.6699Z" fill="#F7F0E8"/>
</g>
<path d="M66.8335 53.2827H78.4976V55.3411H66.8335V53.2827Z" fill="#D9D9D9"/>
<path d="M66.8335 56.7133H78.4976C78.4976 57.8501 77.576 58.7717 76.4392 58.7717H68.8919C67.7551 58.7717 66.8335 57.8501 66.8335 56.7133Z" fill="#D9D9D9"/>
<path d="M69.2349 60.144H76.0962C76.0962 61.4702 75.021 62.5454 73.6947 62.5454H71.6364C70.3101 62.5454 69.2349 61.4702 69.2349 60.144Z" fill="#D9D9D9"/>
<g filter="url(#filter1_ddii_5814_27783)">
<path d="M82.6699 40.6699C82.6699 46.1928 78.5062 49.2183 78.5062 52.2828H66.8336C66.8336 49.057 62.6699 46.1928 62.6699 40.6699C62.6699 35.1471 67.1471 30.6699 72.6699 30.6699C78.1928 30.6699 82.6699 35.1471 82.6699 40.6699Z" fill="#F7F0E8"/>
</g>
<path d="M98.8335 53.2827H110.498V55.3411H98.8335V53.2827Z" fill="#D9D9D9"/>
<path d="M98.8335 56.7133H110.498C110.498 57.8501 109.576 58.7717 108.439 58.7717H100.892C99.7551 58.7717 98.8335 57.8501 98.8335 56.7133Z" fill="#D9D9D9"/>
<path d="M101.235 60.144H108.096C108.096 61.4702 107.021 62.5454 105.695 62.5454H103.636C102.31 62.5454 101.235 61.4702 101.235 60.144Z" fill="#D9D9D9"/>
<g filter="url(#filter2_ddii_5814_27783)">
<path d="M114.67 40.6699C114.67 46.1928 110.506 49.2183 110.506 52.2828H98.8336C98.8336 49.057 94.6699 46.1928 94.6699 40.6699C94.6699 35.1471 99.1471 30.6699 104.67 30.6699C110.193 30.6699 114.67 35.1471 114.67 40.6699Z" fill="#F7F0E8"/>
</g>
<path d="M130.833 53.2827H142.498V55.3411H130.833V53.2827Z" fill="#D9D9D9"/>
<path d="M130.833 56.7133H142.498C142.498 57.8501 141.576 58.7717 140.439 58.7717H132.892C131.755 58.7717 130.833 57.8501 130.833 56.7133Z" fill="#D9D9D9"/>
<path d="M133.235 60.144H140.096C140.096 61.4702 139.021 62.5454 137.695 62.5454H135.636C134.31 62.5454 133.235 61.4702 133.235 60.144Z" fill="#D9D9D9"/>
<g filter="url(#filter3_ddii_5814_27783)">
<path d="M146.67 40.6699C146.67 46.1928 142.506 49.2183 142.506 52.2828H130.834C130.834 49.057 126.67 46.1928 126.67 40.6699C126.67 35.1471 131.147 30.6699 136.67 30.6699C142.193 30.6699 146.67 35.1471 146.67 40.6699Z" fill="#F7F0E8"/>
</g>
<path d="M162.833 53.2827H174.498V55.3411H162.833V53.2827Z" fill="#D9D9D9"/>
<path d="M162.833 56.7133H174.498C174.498 57.8501 173.576 58.7717 172.439 58.7717H164.892C163.755 58.7717 162.833 57.8501 162.833 56.7133Z" fill="#D9D9D9"/>
<path d="M165.235 60.144H172.096C172.096 61.4702 171.021 62.5454 169.695 62.5454H167.636C166.31 62.5454 165.235 61.4702 165.235 60.144Z" fill="#D9D9D9"/>
<g filter="url(#filter4_d_5814_27783)">
<path d="M178.67 40.6699C178.67 46.1928 174.506 49.2183 174.506 52.2828H162.834C162.834 49.057 158.67 46.1928 158.67 40.6699C158.67 35.1471 163.147 30.6699 168.67 30.6699C174.193 30.6699 178.67 35.1471 178.67 40.6699Z" fill="#F7F0E8"/>
<path d="M178.67 40.6699C178.67 46.1928 174.506 49.2183 174.506 52.2828H162.834C162.834 49.057 158.67 46.1928 158.67 40.6699C158.67 35.1471 163.147 30.6699 168.67 30.6699C174.193 30.6699 178.67 35.1471 178.67 40.6699Z" fill="#484C7F" fill-opacity="0.1"/>
<path d="M178.67 40.6699C178.67 46.1928 174.506 49.2183 174.506 52.2828H162.834C162.834 49.057 158.67 46.1928 158.67 40.6699C158.67 35.1471 163.147 30.6699 168.67 30.6699C174.193 30.6699 178.67 35.1471 178.67 40.6699Z" fill="url(#paint0_radial_5814_27783)" fill-opacity="0.3"/>
<path d="M168.67 31.1699C173.917 31.1699 178.17 35.4232 178.17 40.6699C178.17 43.2979 177.183 45.3417 176.153 47.1514C175.647 48.0418 175.107 48.9137 174.707 49.7334C174.381 50.4028 174.126 51.0834 174.04 51.7832H163.302C163.218 51.0522 162.964 50.3515 162.634 49.667C162.233 48.837 161.693 47.9706 161.186 47.0889C160.156 45.2991 159.17 43.2964 159.17 40.6699C159.17 35.4232 163.423 31.1699 168.67 31.1699Z" stroke="black" stroke-opacity="0.05"/>
</g>
<defs>
<filter id="filter0_ddii_5814_27783" x="-7.82013e-05" y="-7.82013e-05" width="81.34" height="82.9528" filterUnits="userSpaceOnUse" color-interpolation-filters="sRGB">
<feFlood flood-opacity="0" result="BackgroundImageFix"/>
<feColorMatrix in="SourceAlpha" type="matrix" values="0 0 0 0 0 0 0 0 0 0 0 0 0 0 0 0 0 0 127 0" result="hardAlpha"/>
<feMorphology radius="4" operator="dilate" in="SourceAlpha" result="effect1_dropShadow_5814_27783"/>
<feOffset/>
<feGaussianBlur stdDeviation="9.335"/>
<feComposite in2="hardAlpha" operator="out"/>
<feColorMatrix type="matrix" values="0 0 0 0 1 0 0 0 0 0.854888 0 0 0 0 0.653508 0 0 0 1 0"/>
<feBlend mode="normal" in2="BackgroundImageFix" result="effect1_dropShadow_5814_27783"/>
<feColorMatrix in="SourceAlpha" type="matrix" values="0 0 0 0 0 0 0 0 0 0 0 0 0 0 0 0 0 0 127 0" result="hardAlpha"/>
<feMorphology radius="4" operator="dilate" in="SourceAlpha" result="effect2_dropShadow_5814_27783"/>
<feOffset/>
<feGaussianBlur stdDeviation="13.335"/>
<feComposite in2="hardAlpha" operator="out"/>
<feColorMatrix type="matrix" values="0 0 0 0 0.937255 0 0 0 0 0.552941 0 0 0 0 0.0196078 0 0 0 1 0"/>
<feBlend mode="normal" in2="effect1_dropShadow_5814_27783" result="effect2_dropShadow_5814_27783"/>
<feBlend mode="normal" in="SourceGraphic" in2="effect2_dropShadow_5814_27783" result="shape"/>
<feColorMatrix in="SourceAlpha" type="matrix" values="0 0 0 0 0 0 0 0 0 0 0 0 0 0 0 0 0 0 127 0" result="hardAlpha"/>
<feMorphology radius="1.33333" operator="erode" in="SourceAlpha" result="effect3_innerShadow_5814_27783"/>
<feOffset/>
<feGaussianBlur stdDeviation="1.33333"/>
<feComposite in2="hardAlpha" operator="arithmetic" k2="-1" k3="1"/>
<feColorMatrix type="matrix" values="0 0 0 0 1 0 0 0 0 0.803922 0 0 0 0 0.435294 0 0 0 1 0"/>
<feBlend mode="normal" in2="shape" result="effect3_innerShadow_5814_27783"/>
<feColorMatrix in="SourceAlpha" type="matrix" values="0 0 0 0 0 0 0 0 0 0 0 0 0 0 0 0 0 0 127 0" result="hardAlpha"/>
<feMorphology radius="1.33333" operator="erode" in="SourceAlpha" result="effect4_innerShadow_5814_27783"/>
<feOffset/>
<feGaussianBlur stdDeviation="1.33333"/>
<feComposite in2="hardAlpha" operator="arithmetic" k2="-1" k3="1"/>
<feColorMatrix type="matrix" values="0 0 0 0 1 0 0 0 0 0.803922 0 0 0 0 0.435294 0 0 0 1 0"/>
<feBlend mode="normal" in2="effect3_innerShadow_5814_27783" result="effect4_innerShadow_5814_27783"/>
</filter>
<filter id="filter1_ddii_5814_27783" x="31.9999" y="-7.82013e-05" width="81.34" height="82.9528" filterUnits="userSpaceOnUse" color-interpolation-filters="sRGB">
<feFlood flood-opacity="0" result="BackgroundImageFix"/>
<feColorMatrix in="SourceAlpha" type="matrix" values="0 0 0 0 0 0 0 0 0 0 0 0 0 0 0 0 0 0 127 0" result="hardAlpha"/>
<feMorphology radius="4" operator="dilate" in="SourceAlpha" result="effect1_dropShadow_5814_27783"/>
<feOffset/>
<feGaussianBlur stdDeviation="9.335"/>
<feComposite in2="hardAlpha" operator="out"/>
<feColorMatrix type="matrix" values="0 0 0 0 1 0 0 0 0 0.854888 0 0 0 0 0.653508 0 0 0 1 0"/>
<feBlend mode="normal" in2="BackgroundImageFix" result="effect1_dropShadow_5814_27783"/>
<feColorMatrix in="SourceAlpha" type="matrix" values="0 0 0 0 0 0 0 0 0 0 0 0 0 0 0 0 0 0 127 0" result="hardAlpha"/>
<feMorphology radius="4" operator="dilate" in="SourceAlpha" result="effect2_dropShadow_5814_27783"/>
<feOffset/>
<feGaussianBlur stdDeviation="13.335"/>
<feComposite in2="hardAlpha" operator="out"/>
<feColorMatrix type="matrix" values="0 0 0 0 0.937255 0 0 0 0 0.552941 0 0 0 0 0.0196078 0 0 0 1 0"/>
<feBlend mode="normal" in2="effect1_dropShadow_5814_27783" result="effect2_dropShadow_5814_27783"/>
<feBlend mode="normal" in="SourceGraphic" in2="effect2_dropShadow_5814_27783" result="shape"/>
<feColorMatrix in="SourceAlpha" type="matrix" values="0 0 0 0 0 0 0 0 0 0 0 0 0 0 0 0 0 0 127 0" result="hardAlpha"/>
<feMorphology radius="1.33333" operator="erode" in="SourceAlpha" result="effect3_innerShadow_5814_27783"/>
<feOffset/>
<feGaussianBlur stdDeviation="1.33333"/>
<feComposite in2="hardAlpha" operator="arithmetic" k2="-1" k3="1"/>
<feColorMatrix type="matrix" values="0 0 0 0 1 0 0 0 0 0.803922 0 0 0 0 0.435294 0 0 0 1 0"/>
<feBlend mode="normal" in2="shape" result="effect3_innerShadow_5814_27783"/>
<feColorMatrix in="SourceAlpha" type="matrix" values="0 0 0 0 0 0 0 0 0 0 0 0 0 0 0 0 0 0 127 0" result="hardAlpha"/>
<feMorphology radius="1.33333" operator="erode" in="SourceAlpha" result="effect4_innerShadow_5814_27783"/>
<feOffset/>
<feGaussianBlur stdDeviation="1.33333"/>
<feComposite in2="hardAlpha" operator="arithmetic" k2="-1" k3="1"/>
<feColorMatrix type="matrix" values="0 0 0 0 1 0 0 0 0 0.803922 0 0 0 0 0.435294 0 0 0 1 0"/>
<feBlend mode="normal" in2="effect3_innerShadow_5814_27783" result="effect4_innerShadow_5814_27783"/>
</filter>
<filter id="filter2_ddii_5814_27783" x="63.9999" y="-7.82013e-05" width="81.34" height="82.9528" filterUnits="userSpaceOnUse" color-interpolation-filters="sRGB">
<feFlood flood-opacity="0" result="BackgroundImageFix"/>
<feColorMatrix in="SourceAlpha" type="matrix" values="0 0 0 0 0 0 0 0 0 0 0 0 0 0 0 0 0 0 127 0" result="hardAlpha"/>
<feMorphology radius="4" operator="dilate" in="SourceAlpha" result="effect1_dropShadow_5814_27783"/>
<feOffset/>
<feGaussianBlur stdDeviation="9.335"/>
<feComposite in2="hardAlpha" operator="out"/>
<feColorMatrix type="matrix" values="0 0 0 0 1 0 0 0 0 0.854888 0 0 0 0 0.653508 0 0 0 1 0"/>
<feBlend mode="normal" in2="BackgroundImageFix" result="effect1_dropShadow_5814_27783"/>
<feColorMatrix in="SourceAlpha" type="matrix" values="0 0 0 0 0 0 0 0 0 0 0 0 0 0 0 0 0 0 127 0" result="hardAlpha"/>
<feMorphology radius="4" operator="dilate" in="SourceAlpha" result="effect2_dropShadow_5814_27783"/>
<feOffset/>
<feGaussianBlur stdDeviation="13.335"/>
<feComposite in2="hardAlpha" operator="out"/>
<feColorMatrix type="matrix" values="0 0 0 0 0.937255 0 0 0 0 0.552941 0 0 0 0 0.0196078 0 0 0 1 0"/>
<feBlend mode="normal" in2="effect1_dropShadow_5814_27783" result="effect2_dropShadow_5814_27783"/>
<feBlend mode="normal" in="SourceGraphic" in2="effect2_dropShadow_5814_27783" result="shape"/>
<feColorMatrix in="SourceAlpha" type="matrix" values="0 0 0 0 0 0 0 0 0 0 0 0 0 0 0 0 0 0 127 0" result="hardAlpha"/>
<feMorphology radius="1.33333" operator="erode" in="SourceAlpha" result="effect3_innerShadow_5814_27783"/>
<feOffset/>
<feGaussianBlur stdDeviation="1.33333"/>
<feComposite in2="hardAlpha" operator="arithmetic" k2="-1" k3="1"/>
<feColorMatrix type="matrix" values="0 0 0 0 1 0 0 0 0 0.803922 0 0 0 0 0.435294 0 0 0 1 0"/>
<feBlend mode="normal" in2="shape" result="effect3_innerShadow_5814_27783"/>
<feColorMatrix in="SourceAlpha" type="matrix" values="0 0 0 0 0 0 0 0 0 0 0 0 0 0 0 0 0 0 127 0" result="hardAlpha"/>
<feMorphology radius="1.33333" operator="erode" in="SourceAlpha" result="effect4_innerShadow_5814_27783"/>
<feOffset/>
<feGaussianBlur stdDeviation="1.33333"/>
<feComposite in2="hardAlpha" operator="arithmetic" k2="-1" k3="1"/>
<feColorMatrix type="matrix" values="0 0 0 0 1 0 0 0 0 0.803922 0 0 0 0 0.435294 0 0 0 1 0"/>
<feBlend mode="normal" in2="effect3_innerShadow_5814_27783" result="effect4_innerShadow_5814_27783"/>
</filter>
<filter id="filter3_ddii_5814_27783" x="95.9999" y="-7.82013e-05" width="81.34" height="82.9528" filterUnits="userSpaceOnUse" color-interpolation-filters="sRGB">
<feFlood flood-opacity="0" result="BackgroundImageFix"/>
<feColorMatrix in="SourceAlpha" type="matrix" values="0 0 0 0 0 0 0 0 0 0 0 0 0 0 0 0 0 0 127 0" result="hardAlpha"/>
<feMorphology radius="4" operator="dilate" in="SourceAlpha" result="effect1_dropShadow_5814_27783"/>
<feOffset/>
<feGaussianBlur stdDeviation="9.335"/>
<feComposite in2="hardAlpha" operator="out"/>
<feColorMatrix type="matrix" values="0 0 0 0 1 0 0 0 0 0.854888 0 0 0 0 0.653508 0 0 0 1 0"/>
<feBlend mode="normal" in2="BackgroundImageFix" result="effect1_dropShadow_5814_27783"/>
<feColorMatrix in="SourceAlpha" type="matrix" values="0 0 0 0 0 0 0 0 0 0 0 0 0 0 0 0 0 0 127 0" result="hardAlpha"/>
<feMorphology radius="4" operator="dilate" in="SourceAlpha" result="effect2_dropShadow_5814_27783"/>
<feOffset/>
<feGaussianBlur stdDeviation="13.335"/>
<feComposite in2="hardAlpha" operator="out"/>
<feColorMatrix type="matrix" values="0 0 0 0 0.937255 0 0 0 0 0.552941 0 0 0 0 0.0196078 0 0 0 1 0"/>
<feBlend mode="normal" in2="effect1_dropShadow_5814_27783" result="effect2_dropShadow_5814_27783"/>
<feBlend mode="normal" in="SourceGraphic" in2="effect2_dropShadow_5814_27783" result="shape"/>
<feColorMatrix in="SourceAlpha" type="matrix" values="0 0 0 0 0 0 0 0 0 0 0 0 0 0 0 0 0 0 127 0" result="hardAlpha"/>
<feMorphology radius="1.33333" operator="erode" in="SourceAlpha" result="effect3_innerShadow_5814_27783"/>
<feOffset/>
<feGaussianBlur stdDeviation="1.33333"/>
<feComposite in2="hardAlpha" operator="arithmetic" k2="-1" k3="1"/>
<feColorMatrix type="matrix" values="0 0 0 0 1 0 0 0 0 0.803922 0 0 0 0 0.435294 0 0 0 1 0"/>
<feBlend mode="normal" in2="shape" result="effect3_innerShadow_5814_27783"/>
<feColorMatrix in="SourceAlpha" type="matrix" values="0 0 0 0 0 0 0 0 0 0 0 0 0 0 0 0 0 0 127 0" result="hardAlpha"/>
<feMorphology radius="1.33333" operator="erode" in="SourceAlpha" result="effect4_innerShadow_5814_27783"/>
<feOffset/>
<feGaussianBlur stdDeviation="1.33333"/>
<feComposite in2="hardAlpha" operator="arithmetic" k2="-1" k3="1"/>
<feColorMatrix type="matrix" values="0 0 0 0 1 0 0 0 0 0.803922 0 0 0 0 0.435294 0 0 0 1 0"/>
<feBlend mode="normal" in2="effect3_innerShadow_5814_27783" result="effect4_innerShadow_5814_27783"/>
</filter>
<filter id="filter4_d_5814_27783" x="151.67" y="25.6699" width="38" height="39.6128" filterUnits="userSpaceOnUse" color-interpolation-filters="sRGB">
<feFlood flood-opacity="0" result="BackgroundImageFix"/>
<feColorMatrix in="SourceAlpha" type="matrix" values="0 0 0 0 0 0 0 0 0 0 0 0 0 0 0 0 0 0 127 0" result="hardAlpha"/>
<feOffset dx="2" dy="4"/>
<feGaussianBlur stdDeviation="4.5"/>
<feComposite in2="hardAlpha" operator="out"/>
<feColorMatrix type="matrix" values="0 0 0 0 0 0 0 0 0 0 0 0 0 0 0 0 0 0 0.25 0"/>
<feBlend mode="normal" in2="BackgroundImageFix" result="effect1_dropShadow_5814_27783"/>
<feBlend mode="normal" in="SourceGraphic" in2="effect1_dropShadow_5814_27783" result="shape"/>
</filter>
<radialGradient id="paint0_radial_5814_27783" cx="0" cy="0" r="1" gradientUnits="userSpaceOnUse" gradientTransform="translate(168.67 41.4764) rotate(90) scale(10.8065 10)">
<stop stop-opacity="0"/>
<stop offset="1"/>
</radialGradient>
</defs>
</svg>
