<svg width="138" height="60" viewBox="0 0 138 60" fill="none" xmlns="http://www.w3.org/2000/svg">
<mask id="path-1-inside-1_6455_7624" fill="white">
<path d="M0 0H138V60H8C3.58172 60 0 56.4183 0 52V0Z"/>
</mask>
<path d="M0 0H138V60H8C3.58172 60 0 56.4183 0 52V0Z" fill="url(#paint0_radial_6455_7624)" fill-opacity="0.05"/>
<path d="M0 0H138V60H8C3.58172 60 0 56.4183 0 52V0Z" fill="black" fill-opacity="0.2"/>
<path d="M0 0H138H0M138 62H8C2.47715 62 -2 57.5228 -2 52H2C2 55.3137 4.68629 58 8 58H138V62ZM8 62C2.47715 62 -2 57.5228 -2 52V0H2V52C2 55.3137 4.68629 58 8 58V62ZM8 58M138 0V60V0" fill="url(#paint1_linear_6455_7624)" mask="url(#path-1-inside-1_6455_7624)"/>
<path d="M25.136 37V35.56L26.996 35.02L26.616 35.6V24.4L27.076 25L25.136 24.46V23.02L30.936 22.92V24.36L29.036 25L29.476 24.38V29.24L29.036 28.8H35.556L35.116 29.24V24.4L35.556 24.98L33.636 24.46V23.02L39.436 22.92V24.36L37.576 24.98L37.976 24.38V35.6L37.576 35.02L39.436 35.56V37H33.636V35.56L35.476 35.02L35.116 35.6V30.4L35.556 30.86H29.036L29.476 30.4V35.6L29.116 35.02L30.936 35.56V37H25.136ZM45.9024 26.08C47.4758 26.08 48.7024 26.5467 49.5824 27.48C50.4624 28.4133 50.9024 29.74 50.9024 31.46C50.9024 32.66 50.6891 33.6933 50.2624 34.56C49.8358 35.4133 49.2224 36.0733 48.4224 36.54C47.6224 37.0067 46.6624 37.24 45.5424 37.24C43.9691 37.24 42.7491 36.7733 41.8824 35.84C41.0291 34.9067 40.6024 33.58 40.6024 31.86C40.6024 30.66 40.8091 29.6333 41.2224 28.78C41.6491 27.9133 42.2558 27.2467 43.0424 26.78C43.8291 26.3133 44.7824 26.08 45.9024 26.08ZM45.7624 28.08C45.0024 28.08 44.4358 28.38 44.0624 28.98C43.6891 29.5667 43.5024 30.48 43.5024 31.72C43.5024 32.96 43.6824 33.86 44.0424 34.42C44.4024 34.9667 44.9491 35.24 45.6824 35.24C46.2158 35.24 46.6491 35.1067 46.9824 34.84C47.3158 34.5733 47.5691 34.1667 47.7424 33.62C47.9158 33.0733 48.0024 32.4 48.0024 31.6C48.0024 30.3867 47.8158 29.5 47.4424 28.94C47.0691 28.3667 46.5091 28.08 45.7624 28.08ZM62.4054 27.94L62.0054 28.04C62.6454 27.3867 63.3254 26.9 64.0454 26.58C64.7654 26.2467 65.4521 26.08 66.1054 26.08C66.9454 26.08 67.6454 26.36 68.2054 26.92C68.7787 27.4667 69.0654 28.3133 69.0654 29.46V35.48L68.8054 35.08L70.4054 35.56V37H65.1454V35.56L66.6054 35.12L66.2654 35.54V30.08C66.2654 29.44 66.1321 28.9667 65.8654 28.66C65.6121 28.3533 65.2787 28.2 64.8654 28.2C64.5187 28.2 64.1321 28.3067 63.7054 28.52C63.2787 28.7333 62.8521 29.0467 62.4254 29.46L62.6254 28.84C62.6521 28.9467 62.6654 29.0467 62.6654 29.14C62.6654 29.22 62.6654 29.2933 62.6654 29.36V35.48L62.4054 35.08L63.8054 35.56V37H58.7254V35.56L60.1854 35.12L59.8654 35.54V30.08C59.8654 29.44 59.7321 28.9667 59.4654 28.66C59.1987 28.3533 58.8654 28.2 58.4654 28.2C58.1187 28.2 57.7321 28.3 57.3054 28.5C56.8787 28.7 56.4654 29 56.0654 29.4L56.2454 28.98V35.54L55.9854 35.12L57.3854 35.56V37H52.1054V35.56L53.7854 35.08L53.4454 35.48V27.86L53.7854 28.32L52.1054 27.82V26.38L55.6254 26.22L55.9854 28.14L55.6254 28C56.2521 27.3733 56.9187 26.9 57.6254 26.58C58.3454 26.2467 59.0321 26.08 59.6854 26.08C60.2987 26.08 60.8454 26.2333 61.3254 26.54C61.8054 26.8333 62.1654 27.3 62.4054 27.94ZM76.1074 37.24C75.1341 37.24 74.2808 37.04 73.5474 36.64C72.8141 36.2267 72.2408 35.62 71.8274 34.82C71.4274 34.0067 71.2274 33.02 71.2274 31.86C71.2274 30.66 71.4408 29.6333 71.8674 28.78C72.3074 27.9133 72.9208 27.2467 73.7074 26.78C74.4941 26.3133 75.4208 26.08 76.4874 26.08C77.5274 26.08 78.3741 26.2867 79.0274 26.7C79.6808 27.1133 80.1608 27.68 80.4674 28.4C80.7741 29.1067 80.9274 29.9067 80.9274 30.8C80.9274 31.0267 80.9141 31.2533 80.8874 31.48C80.8741 31.7067 80.8474 31.9467 80.8074 32.2H73.4874V30.54H78.4074L78.0474 30.8C78.0608 30.2667 78.0074 29.8 77.8874 29.4C77.7808 28.9867 77.5941 28.6667 77.3274 28.44C77.0741 28.2133 76.7208 28.1 76.2674 28.1C75.7474 28.1 75.3274 28.2533 75.0074 28.56C74.6874 28.8533 74.4541 29.2533 74.3074 29.76C74.1741 30.2667 74.1074 30.8333 74.1074 31.46C74.1074 32.1667 74.1941 32.8 74.3674 33.36C74.5408 33.92 74.8208 34.36 75.2074 34.68C75.6074 35 76.1274 35.16 76.7674 35.16C77.2208 35.16 77.7074 35.08 78.2274 34.92C78.7608 34.7467 79.3141 34.4933 79.8874 34.16L80.8274 35.66C80.0541 36.1933 79.2608 36.5933 78.4474 36.86C77.6474 37.1133 76.8674 37.24 76.1074 37.24Z" fill="white"/>
<path d="M116.425 24.2848C116.669 24.5288 116.669 24.9245 116.425 25.1686L112.123 29.4713C111.878 29.7154 111.878 30.1111 112.123 30.3552L116.659 34.8911C116.903 35.1352 116.903 35.531 116.658 35.7751L114.006 38.4265C113.762 38.6705 113.367 38.6705 113.123 38.4264L108.586 33.8904C108.342 33.6463 107.947 33.6463 107.703 33.8904L103.167 38.4263C102.923 38.6704 102.528 38.6704 102.284 38.4263L99.6323 35.775C99.3882 35.531 99.3882 35.1353 99.6322 34.8912L104.167 30.3552C104.411 30.1111 104.411 29.7154 104.167 29.4713L99.8647 25.1686C99.6206 24.9245 99.6206 24.5288 99.8646 24.2848L102.516 21.6326C102.76 21.3885 103.156 21.3885 103.4 21.6326L107.703 25.9352C107.947 26.1792 108.342 26.1793 108.586 25.9352L112.89 21.6325C113.134 21.3884 113.53 21.3885 113.774 21.6326L116.425 24.2848Z" fill="white"/>
<defs>
<radialGradient id="paint0_radial_6455_7624" cx="0" cy="0" r="1" gradientUnits="userSpaceOnUse" gradientTransform="translate(69 30) rotate(90) scale(30 69)">
<stop stop-opacity="0"/>
<stop offset="1" stop-opacity="0.6"/>
</radialGradient>
<linearGradient id="paint1_linear_6455_7624" x1="4.6" y1="2" x2="45.8281" y2="96.8247" gradientUnits="userSpaceOnUse">
<stop stop-color="white"/>
<stop offset="0.742725" stop-color="white" stop-opacity="0"/>
<stop offset="1" stop-color="white"/>
</linearGradient>
</defs>
</svg>
