<svg width="122" height="64" viewBox="0 0 122 64" fill="none" xmlns="http://www.w3.org/2000/svg">
<g filter="url(#filter0_i_6456_7809)">
<rect width="122" height="64" rx="32" fill="url(#paint0_linear_6456_7809)" fill-opacity="0.4"/>
<rect x="0.790632" y="0.790632" width="120.419" height="62.4187" rx="31.2094" stroke="url(#paint1_linear_6456_7809)" stroke-opacity="0.4" stroke-width="1.58126"/>
<g filter="url(#filter1_d_6456_7809)">
<mask id="path-3-outside-1_6456_7809" maskUnits="userSpaceOnUse" x="27" y="21" width="27" height="21" fill="black">
<rect fill="white" x="27" y="21" width="27" height="21"/>
<path d="M35.9623 38.632L35.3863 37.864L38.5543 38.488V40H29.8423V38.488L33.6103 37.888L33.0103 38.632V25.6L33.8263 25.648L29.7703 27.928L28.8103 26.128L33.5143 23.056H35.9623V38.632ZM46.2548 40.264C44.7988 40.264 43.6068 39.952 42.6788 39.328C41.7508 38.688 41.0708 37.736 40.6388 36.472C40.2068 35.208 39.9908 33.624 39.9908 31.72C39.9908 29.768 40.2148 28.136 40.6628 26.824C41.1268 25.512 41.8388 24.528 42.7988 23.872C43.7748 23.216 45.0308 22.888 46.5668 22.888C48.0868 22.888 49.2948 23.2 50.1908 23.824C51.0868 24.432 51.7268 25.36 52.1108 26.608C52.5108 27.84 52.7108 29.392 52.7108 31.264C52.7108 33.232 52.4788 34.888 52.0148 36.232C51.5668 37.576 50.8628 38.584 49.9028 39.256C48.9588 39.928 47.7428 40.264 46.2548 40.264ZM46.3268 38.008C47.1428 38.008 47.7908 37.776 48.2708 37.312C48.7508 36.832 49.0948 36.104 49.3028 35.128C49.5268 34.136 49.6388 32.904 49.6388 31.432C49.6548 29.928 49.5588 28.72 49.3508 27.808C49.1428 26.88 48.7988 26.208 48.3188 25.792C47.8548 25.36 47.2388 25.144 46.4708 25.144C45.6388 25.144 44.9668 25.384 44.4548 25.864C43.9588 26.328 43.5988 27.04 43.3748 28C43.1508 28.96 43.0388 30.168 43.0388 31.624C43.0388 33.08 43.1428 34.28 43.3508 35.224C43.5748 36.152 43.9268 36.848 44.4068 37.312C44.9028 37.776 45.5428 38.008 46.3268 38.008Z"/>
</mask>
<path d="M35.9623 38.632L35.3863 37.864L38.5543 38.488V40H29.8423V38.488L33.6103 37.888L33.0103 38.632V25.6L33.8263 25.648L29.7703 27.928L28.8103 26.128L33.5143 23.056H35.9623V38.632ZM46.2548 40.264C44.7988 40.264 43.6068 39.952 42.6788 39.328C41.7508 38.688 41.0708 37.736 40.6388 36.472C40.2068 35.208 39.9908 33.624 39.9908 31.72C39.9908 29.768 40.2148 28.136 40.6628 26.824C41.1268 25.512 41.8388 24.528 42.7988 23.872C43.7748 23.216 45.0308 22.888 46.5668 22.888C48.0868 22.888 49.2948 23.2 50.1908 23.824C51.0868 24.432 51.7268 25.36 52.1108 26.608C52.5108 27.84 52.7108 29.392 52.7108 31.264C52.7108 33.232 52.4788 34.888 52.0148 36.232C51.5668 37.576 50.8628 38.584 49.9028 39.256C48.9588 39.928 47.7428 40.264 46.2548 40.264ZM46.3268 38.008C47.1428 38.008 47.7908 37.776 48.2708 37.312C48.7508 36.832 49.0948 36.104 49.3028 35.128C49.5268 34.136 49.6388 32.904 49.6388 31.432C49.6548 29.928 49.5588 28.72 49.3508 27.808C49.1428 26.88 48.7988 26.208 48.3188 25.792C47.8548 25.36 47.2388 25.144 46.4708 25.144C45.6388 25.144 44.9668 25.384 44.4548 25.864C43.9588 26.328 43.5988 27.04 43.3748 28C43.1508 28.96 43.0388 30.168 43.0388 31.624C43.0388 33.08 43.1428 34.28 43.3508 35.224C43.5748 36.152 43.9268 36.848 44.4068 37.312C44.9028 37.776 45.5428 38.008 46.3268 38.008Z" fill="white"/>
<path d="M35.9623 38.632L35.1623 39.232C35.4206 39.5763 35.8702 39.7168 36.2785 39.5807C36.6869 39.4446 36.9623 39.0624 36.9623 38.632H35.9623ZM35.3863 37.864L35.5796 36.8829C35.1733 36.8028 34.7598 36.9814 34.5395 37.3321C34.3193 37.6827 34.3379 38.1328 34.5863 38.464L35.3863 37.864ZM38.5543 38.488H39.5543C39.5543 38.0102 39.2163 37.5992 38.7476 37.5069L38.5543 38.488ZM38.5543 40V41C39.1066 41 39.5543 40.5523 39.5543 40H38.5543ZM29.8423 40H28.8423C28.8423 40.5523 29.29 41 29.8423 41V40ZM29.8423 38.488L29.6851 37.5004C29.1996 37.5777 28.8423 37.9964 28.8423 38.488H29.8423ZM33.6103 37.888L34.3887 38.5158C34.6485 38.1936 34.683 37.7448 34.4756 37.3868C34.2682 37.0287 33.8617 36.8354 33.4531 36.9004L33.6103 37.888ZM33.0103 38.632H32.0103C32.0103 39.056 32.2777 39.4339 32.6775 39.575C33.0772 39.7161 33.5226 39.5898 33.7887 39.2598L33.0103 38.632ZM33.0103 25.6L33.069 24.6017C32.7941 24.5856 32.5247 24.6835 32.3243 24.8724C32.1239 25.0614 32.0103 25.3246 32.0103 25.6H33.0103ZM33.8263 25.648L34.3163 26.5197C34.7032 26.3022 34.9005 25.8557 34.8007 25.4233C34.701 24.9908 34.3281 24.6758 33.885 24.6497L33.8263 25.648ZM29.7703 27.928L28.888 28.3986C29.0146 28.636 29.2315 28.8124 29.4898 28.8878C29.748 28.9633 30.0258 28.9316 30.2603 28.7997L29.7703 27.928ZM28.8103 26.128L28.2635 25.2907C27.8298 25.574 27.6842 26.1415 27.928 26.5986L28.8103 26.128ZM33.5143 23.056V22.056C33.3201 22.056 33.1301 22.1125 32.9675 22.2187L33.5143 23.056ZM35.9623 23.056H36.9623C36.9623 22.5037 36.5146 22.056 35.9623 22.056V23.056ZM35.9623 38.632L36.7623 38.032L36.1863 37.264L35.3863 37.864L34.5863 38.464L35.1623 39.232L35.9623 38.632ZM35.3863 37.864L35.1931 38.8451L38.3611 39.4691L38.5543 38.488L38.7476 37.5069L35.5796 36.8829L35.3863 37.864ZM38.5543 38.488H37.5543V40H38.5543H39.5543V38.488H38.5543ZM38.5543 40V39H29.8423V40V41H38.5543V40ZM29.8423 40H30.8423V38.488H29.8423H28.8423V40H29.8423ZM29.8423 38.488L29.9996 39.4756L33.7676 38.8756L33.6103 37.888L33.4531 36.9004L29.6851 37.5004L29.8423 38.488ZM33.6103 37.888L32.8319 37.2602L32.2319 38.0042L33.0103 38.632L33.7887 39.2598L34.3887 38.5158L33.6103 37.888ZM33.0103 38.632H34.0103V25.6H33.0103H32.0103V38.632H33.0103ZM33.0103 25.6L32.9516 26.5983L33.7676 26.6463L33.8263 25.648L33.885 24.6497L33.069 24.6017L33.0103 25.6ZM33.8263 25.648L33.3363 24.7763L29.2803 27.0563L29.7703 27.928L30.2603 28.7997L34.3163 26.5197L33.8263 25.648ZM29.7703 27.928L30.6527 27.4574L29.6927 25.6574L28.8103 26.128L27.928 26.5986L28.888 28.3986L29.7703 27.928ZM28.8103 26.128L29.3571 26.9653L34.0611 23.8933L33.5143 23.056L32.9675 22.2187L28.2635 25.2907L28.8103 26.128ZM33.5143 23.056V24.056H35.9623V23.056V22.056H33.5143V23.056ZM35.9623 23.056H34.9623V38.632H35.9623H36.9623V23.056H35.9623ZM42.6788 39.328L42.111 40.1513L42.1208 40.1578L42.6788 39.328ZM40.6388 36.472L39.6925 36.7954V36.7954L40.6388 36.472ZM40.6628 26.824L39.7199 26.4906L39.7164 26.5009L40.6628 26.824ZM42.7987 23.872L42.2409 23.042L42.2346 23.0464L42.7987 23.872ZM50.1908 23.824L49.6192 24.6447L49.6292 24.6515L50.1908 23.824ZM52.1108 26.608L51.155 26.9021C51.1565 26.907 51.158 26.9119 51.1596 26.9168L52.1108 26.608ZM52.0148 36.232L51.0694 35.9056L51.0661 35.9158L52.0148 36.232ZM49.9028 39.256L49.3293 38.4367L49.3228 38.4413L49.9028 39.256ZM48.2708 37.312L48.9658 38.031C48.9698 38.0271 48.9739 38.0231 48.9779 38.0191L48.2708 37.312ZM49.3027 35.128L48.3272 34.9077L48.3247 34.9196L49.3027 35.128ZM49.6388 31.432L48.6388 31.4214V31.432H49.6388ZM49.3507 27.808L48.375 28.0267L48.3758 28.0304L49.3507 27.808ZM48.3188 25.792L47.6373 26.5239C47.646 26.532 47.6549 26.5399 47.6638 26.5477L48.3188 25.792ZM44.4548 25.864L45.1379 26.5943L45.1387 26.5935L44.4548 25.864ZM43.3748 28L44.3486 28.2272V28.2272L43.3748 28ZM43.3507 35.224L42.3742 35.4392C42.3756 35.4457 42.3771 35.4522 42.3787 35.4586L43.3507 35.224ZM44.4067 37.312L43.7117 38.031C43.7157 38.0348 43.7196 38.0385 43.7236 38.0423L44.4067 37.312ZM46.2547 40.264V39.264C44.9382 39.264 43.9566 38.9822 43.2367 38.4982L42.6788 39.328L42.1208 40.1578C43.2569 40.9218 44.6593 41.264 46.2547 41.264V40.264ZM42.6788 39.328L43.2465 38.5048C42.5259 38.0078 41.9609 37.2484 41.585 36.1486L40.6388 36.472L39.6925 36.7954C40.1806 38.2236 40.9756 39.3682 42.111 40.1512L42.6788 39.328ZM40.6388 36.472L41.585 36.1486C41.2002 35.0227 40.9908 33.5568 40.9908 31.72H39.9908H38.9908C38.9908 33.6912 39.2133 35.3933 39.6925 36.7954L40.6388 36.472ZM39.9908 31.72H40.9908C40.9908 29.8367 41.2079 28.3222 41.6091 27.1471L40.6628 26.824L39.7164 26.5009C39.2216 27.9498 38.9908 29.6993 38.9908 31.72H39.9908ZM40.6628 26.824L41.6055 27.1574C42.0131 26.0051 42.6105 25.2118 43.3629 24.6976L42.7987 23.872L42.2346 23.0464C41.067 23.8442 40.2404 25.0189 39.72 26.4906L40.6628 26.824ZM42.7987 23.872L43.3566 24.702C44.124 24.1862 45.1694 23.888 46.5667 23.888V22.888V21.888C44.8921 21.888 43.4255 22.2458 42.2409 23.042L42.7987 23.872ZM46.5667 22.888V23.888C47.9601 23.888 48.9451 24.1751 49.6193 24.6446L50.1908 23.824L50.7622 23.0034C49.6445 22.2249 48.2134 21.888 46.5667 21.888V22.888ZM50.1908 23.824L49.6292 24.6515C50.3004 25.1069 50.8236 25.8252 51.155 26.9021L52.1108 26.608L53.0665 26.3139C52.6299 24.8948 51.8731 23.7571 50.7523 22.9965L50.1908 23.824ZM52.1108 26.608L51.1596 26.9168C51.5163 28.0155 51.7108 29.4544 51.7108 31.264H52.7108H53.7108C53.7108 29.3296 53.5052 27.6645 53.0619 26.2992L52.1108 26.608ZM52.7108 31.264H51.7108C51.7108 33.1604 51.4863 34.6984 51.0695 35.9057L52.0148 36.232L52.96 36.5583C53.4712 35.0776 53.7108 33.3036 53.7108 31.264H52.7108ZM52.0148 36.232L51.0661 35.9158C50.6714 37.0998 50.0792 37.9118 49.3293 38.4368L49.9028 39.256L50.4762 40.0752C51.6463 39.2562 52.4621 38.0522 52.9634 36.5482L52.0148 36.232ZM49.9028 39.256L49.3228 38.4413C48.5906 38.9625 47.5939 39.264 46.2547 39.264V40.264V41.264C47.8916 41.264 49.3269 40.8935 50.4827 40.0707L49.9028 39.256ZM46.3267 38.008V39.008C47.3411 39.008 48.2596 38.7136 48.9658 38.031L48.2708 37.312L47.5757 36.593C47.3219 36.8384 46.9444 37.008 46.3267 37.008V38.008ZM48.2708 37.312L48.9779 38.0191C49.6445 37.3525 50.0504 36.4176 50.2808 35.3364L49.3027 35.128L48.3247 34.9196C48.1391 35.7904 47.857 36.3115 47.5636 36.6049L48.2708 37.312ZM49.3027 35.128L50.2782 35.3483C50.524 34.2597 50.6388 32.9483 50.6388 31.432H49.6388H48.6388C48.6388 32.8597 48.5295 34.0123 48.3273 34.9077L49.3027 35.128ZM49.6388 31.432L50.6387 31.4426C50.6551 29.9015 50.5584 28.6058 50.3257 27.5856L49.3507 27.808L48.3758 28.0304C48.5591 28.8341 48.6544 29.9545 48.6388 31.4214L49.6388 31.432ZM49.3507 27.808L50.3265 27.5893C50.0938 26.5511 49.6778 25.6466 48.9737 25.0363L48.3188 25.792L47.6638 26.5477C47.9197 26.7694 48.1917 27.2089 48.375 28.0267L49.3507 27.808ZM48.3188 25.792L49.0002 25.0601C48.3136 24.4209 47.4352 24.144 46.4708 24.144V25.144V26.144C47.0423 26.144 47.3959 26.2991 47.6373 26.5239L48.3188 25.792ZM46.4708 25.144V24.144C45.4348 24.144 44.5018 24.4492 43.7708 25.1345L44.4548 25.864L45.1387 26.5935C45.4317 26.3188 45.8427 26.144 46.4708 26.144V25.144ZM44.4548 25.864L43.7716 25.1337C43.0795 25.7812 42.6506 26.7027 42.4009 27.7728L43.3748 28L44.3486 28.2272C44.5469 27.3773 44.838 26.8748 45.1379 26.5943L44.4548 25.864ZM43.3748 28L42.4009 27.7728C42.1534 28.8334 42.0387 30.1241 42.0387 31.624H43.0387H44.0387C44.0387 30.2119 44.1481 29.0866 44.3486 28.2272L43.3748 28ZM43.0387 31.624H42.0387C42.0387 33.1199 42.1449 34.3986 42.3742 35.4392L43.3507 35.224L44.3273 35.0088C44.1406 34.1614 44.0387 33.0401 44.0387 31.624H43.0387ZM43.3507 35.224L42.3787 35.4586C42.629 36.4957 43.0486 37.3899 43.7117 38.031L44.4067 37.312L45.1018 36.593C44.8049 36.3061 44.5205 35.8083 44.3228 34.9894L43.3507 35.224ZM44.4067 37.312L43.7236 38.0423C44.4334 38.7063 45.331 39.008 46.3267 39.008V38.008V37.008C45.7545 37.008 45.3721 36.8457 45.0899 36.5817L44.4067 37.312Z" fill="#FFAE00" mask="url(#path-3-outside-1_6456_7809)"/>
</g>
<mask id="mask0_6456_7809" style="mask-type:alpha" maskUnits="userSpaceOnUse" x="68" y="16" width="36" height="32">
<path d="M92.3765 16.2533C92.4803 16.3203 92.5823 16.3856 92.6819 16.45L98.7288 20.2029L104 26.1267L103.997 26.1278L103.992 26.1322L103.998 26.13L103.991 26.1333L86 47.75L82.7579 43.8378C82.7661 43.8499 82.775 43.8618 82.7832 43.874C82.7643 43.849 82.7449 43.8243 82.7261 43.7993L68.1626 26.2245L68 26.13L68.1516 26.2113L68 26.0278L73.2712 20.104L78.6996 16.6005C78.8202 16.477 78.9939 16.3583 79.2291 16.25C82.0631 16.25 88.0812 16.2533 92.3765 16.2533Z" fill="white"/>
</mask>
<g mask="url(#mask0_6456_7809)">
<path d="M80.2348 23.8559L73.2734 20.104L79.2403 16.2534H92.3673L98.732 20.2027L91.9696 23.8559H80.2348Z" fill="#65B9FC"/>
<path d="M94.7533 31.5572L91.9688 23.856L98.7312 20.2029L104.002 26.1269L94.7533 31.5572Z" fill="url(#paint2_linear_6456_7809)"/>
<path d="M77.3504 31.5568L80.2344 23.8556L73.2731 20.1038L68.0023 26.0278L77.3504 31.5568Z" fill="url(#paint3_linear_6456_7809)"/>
<path d="M80.2355 23.856L77.3516 31.5571H94.7549L91.9703 23.856H80.2355Z" fill="url(#paint4_linear_6456_7809)"/>
<path d="M94.7549 31.5571H77.3516L86.0035 47.7494L94.7549 31.5571Z" fill="url(#paint5_linear_6456_7809)"/>
<path opacity="0.25" d="M80.8555 31.49C81.4294 28.559 81.8726 26.9081 83.0414 23.9372L89.2011 23.8887C87.3286 26.7582 86.5472 28.4058 85.5222 31.394L80.8555 31.49Z" fill="url(#paint6_linear_6456_7809)"/>
<path opacity="0.25" d="M71.9062 28.261C72.9723 25.4372 73.6859 23.89 75.3872 21.2637L78.5001 22.723C76.0944 25.0453 75.104 26.6365 73.7068 29.2996L71.9062 28.261Z" fill="url(#paint7_linear_6456_7809)"/>
<path d="M86 47.7494L77.3481 31.5571L68 26.0281L86 47.7494Z" fill="#1289EB"/>
<path d="M86.0027 47.7501L94.7541 31.5578L104 26.1277L86.0027 47.7501Z" fill="#1289EB"/>
<path opacity="0.3" d="M83.0508 23.8551C86.4707 20.6271 88.3462 18.9642 92.4886 16.3303L96.9259 19.132C93.5198 20.4355 91.7685 21.3949 89.1634 23.8551H83.0508Z" fill="white"/>
<path opacity="0.3" d="M85.9805 16.2527C82.6342 18.6001 80.8436 19.9698 78.4121 22.8889L75.3871 21.2423C78.3462 19.2049 80.15 18.1411 83.5409 16.2527H85.9805Z" fill="white"/>
<path opacity="0.5" d="M98.7141 20.2097C91.8235 23.3999 74.7613 18.3082 79.2328 16.25C82.0669 16.25 88.0849 16.2526 92.3802 16.2526C95.6632 18.3721 96.7936 19.1122 98.7141 20.2097Z" fill="#5EB6FE"/>
<path d="M80.1757 24.0667L73.2852 20.1108L80.3713 23.6507L80.1757 24.0667Z" fill="#ABD5F8"/>
<path d="M80.3972 23.6666L77.3594 31.5276L79.9558 23.5294L80.3972 23.6666Z" fill="#ABD5F8"/>
<path d="M91.5558 23.8628L94.7539 31.5576L91.9707 23.8581L91.5558 23.8628Z" fill="#ABD5F8"/>
<path d="M79.8044 23.5083L91.9688 23.8584L79.814 23.9673L79.8044 23.5083Z" fill="#ABD5F8"/>
<path d="M94.5989 31.1754L77.3555 31.5613L94.7539 31.5611L94.5989 31.1754Z" fill="#117FDA"/>
<path d="M94.5368 31.4801L86.0117 47.7141L95.0632 31.3624L94.5368 31.4801Z" fill="#117FDA"/>
<path d="M94.5976 31.1715L104 26.1296L94.7503 31.5566L94.5976 31.1715Z" fill="#117FDA"/>
<path d="M77.4569 31.2033L85.9883 47.7141L76.9844 31.3445L77.4569 31.2033Z" fill="#117FDA"/>
<path d="M77.4613 31.2032L68 26.1296L77.3476 31.558L77.4613 31.2032Z" fill="#117FDA"/>
<path opacity="0.11" d="M82.4356 40.7973C81.5142 37.1497 81.1748 35.1107 80.8516 31.4834L85.5215 31.3765C84.1419 35.9573 83.9479 38.5494 83.6402 43.1744L82.4356 40.7973Z" fill="url(#paint8_linear_6456_7809)"/>
<path opacity="0.11" d="M82.7864 43.8737C78.22 37.8243 75.7105 34.422 71.9141 28.228L73.7747 29.2206C76.8765 35.0097 78.9616 38.2005 82.7864 43.8737Z" fill="url(#paint9_linear_6456_7809)"/>
<g filter="url(#filter2_f_6456_7809)">
<ellipse cx="80.1097" cy="24.0665" rx="0.949509" ry="0.94269" fill="white"/>
</g>
<g filter="url(#filter3_f_6456_7809)">
<ellipse cx="8.55383" cy="0.363989" rx="8.55383" ry="0.363989" transform="matrix(0.476559 -0.879142 0.881993 0.471262 85.5234 46.7231)" fill="white"/>
</g>
<path d="M92.3765 16.2533C92.4803 16.3203 92.5823 16.3856 92.6819 16.45L98.7288 20.2029L104 26.1267L103.997 26.1278L103.992 26.1322L103.998 26.13L103.991 26.1333L86 47.75L82.7579 43.8378C82.7661 43.8499 82.775 43.8618 82.7832 43.874C82.7643 43.849 82.7449 43.8243 82.7261 43.7993L68.1626 26.2245L68 26.13L68.1516 26.2113L68 26.0278L73.2712 20.104L78.6996 16.6005C78.8202 16.477 78.9939 16.3583 79.2291 16.25C82.0631 16.25 88.0812 16.2533 92.3765 16.2533Z" fill="#FF7300" style="mix-blend-mode:color"/>
<path d="M92.3765 16.2533C92.4803 16.3203 92.5823 16.3856 92.6819 16.45L98.7288 20.2029L104 26.1267L103.997 26.1278L103.992 26.1322L103.998 26.13L103.991 26.1333L86 47.75L82.7579 43.8378C82.7661 43.8499 82.775 43.8618 82.7832 43.874C82.7643 43.849 82.7449 43.8243 82.7261 43.7993L68.1626 26.2245L68 26.13L68.1516 26.2113L68 26.0278L73.2712 20.104L78.6996 16.6005C78.8202 16.477 78.9939 16.3583 79.2291 16.25C82.0631 16.25 88.0812 16.2533 92.3765 16.2533Z" fill="#FFB300" style="mix-blend-mode:soft-light"/>
</g>
<g filter="url(#filter4_f_6456_7809)" style="mix-blend-mode:overlay">
<path d="M92.3765 16.2533C92.4803 16.3203 92.5823 16.3856 92.6819 16.45L98.7288 20.2029L104 26.1267L103.997 26.1278L103.992 26.1322L103.998 26.13L103.991 26.1333L86 47.75L82.7579 43.8378C82.7661 43.8499 82.775 43.8618 82.7832 43.874C82.7643 43.849 82.7449 43.8243 82.7261 43.7993L68.1626 26.2245L68 26.13L68.1516 26.2113L68 26.0278L73.2712 20.104L78.6996 16.6005C78.8202 16.477 78.9939 16.3583 79.2291 16.25C82.0631 16.25 88.0812 16.2533 92.3765 16.2533Z" fill="url(#paint10_linear_6456_7809)" fill-opacity="0.2"/>
</g>
<path d="M86 47.75L86.3043 47.1842M86 47.75L82.7579 43.8378C82.7661 43.8499 82.775 43.8618 82.7832 43.874C82.7643 43.849 82.7449 43.8243 82.7261 43.7993L68 26.0278L73.2712 20.104L78.6996 16.6005C78.8202 16.477 78.9939 16.3583 79.2291 16.25C82.0631 16.25 88.0812 16.2533 92.3765 16.2533C92.4803 16.3203 92.5823 16.3856 92.6819 16.45L98.7288 20.2029L103.992 26.1322L86 47.75Z" stroke="#FFAE00" stroke-width="2.25" stroke-linejoin="round"/>
<path d="M86 47.75L86.3043 47.1842M86 47.75L82.7579 43.8378C82.7661 43.8499 82.775 43.8618 82.7832 43.874C82.7643 43.849 82.7449 43.8243 82.7261 43.7993L68 26.0278L73.2712 20.104L78.6996 16.6005C78.8202 16.477 78.9939 16.3583 79.2291 16.25C82.0631 16.25 88.0812 16.2533 92.3765 16.2533C92.4803 16.3203 92.5823 16.3856 92.6819 16.45L98.7288 20.2029L103.992 26.1322L86 47.75Z" stroke="white" stroke-opacity="0.8" stroke-width="2.25" stroke-linejoin="round"/>
</g>
<defs>
<filter id="filter0_i_6456_7809" x="0" y="-11.0688" width="122" height="75.0688" filterUnits="userSpaceOnUse" color-interpolation-filters="sRGB">
<feFlood flood-opacity="0" result="BackgroundImageFix"/>
<feBlend mode="normal" in="SourceGraphic" in2="BackgroundImageFix" result="shape"/>
<feColorMatrix in="SourceAlpha" type="matrix" values="0 0 0 0 0 0 0 0 0 0 0 0 0 0 0 0 0 0 127 0" result="hardAlpha"/>
<feOffset dy="-11.0688"/>
<feGaussianBlur stdDeviation="5.61349"/>
<feComposite in2="hardAlpha" operator="arithmetic" k2="-1" k3="1"/>
<feColorMatrix type="matrix" values="0 0 0 0 1 0 0 0 0 1 0 0 0 0 1 0 0 0 0.1 0"/>
<feBlend mode="overlay" in2="shape" result="effect1_innerShadow_6456_7809"/>
</filter>
<filter id="filter1_d_6456_7809" x="27.8086" y="21.8879" width="25.9023" height="22.376" filterUnits="userSpaceOnUse" color-interpolation-filters="sRGB">
<feFlood flood-opacity="0" result="BackgroundImageFix"/>
<feColorMatrix in="SourceAlpha" type="matrix" values="0 0 0 0 0 0 0 0 0 0 0 0 0 0 0 0 0 0 127 0" result="hardAlpha"/>
<feOffset dy="3"/>
<feComposite in2="hardAlpha" operator="out"/>
<feColorMatrix type="matrix" values="0 0 0 0 0.347037 0 0 0 0 0.236801 0 0 0 0 0 0 0 0 1 0"/>
<feBlend mode="normal" in2="BackgroundImageFix" result="effect1_dropShadow_6456_7809"/>
<feBlend mode="normal" in="SourceGraphic" in2="effect1_dropShadow_6456_7809" result="shape"/>
</filter>
<filter id="filter2_f_6456_7809" x="77.3327" y="21.2963" width="5.55333" height="5.54039" filterUnits="userSpaceOnUse" color-interpolation-filters="sRGB">
<feFlood flood-opacity="0" result="BackgroundImageFix"/>
<feBlend mode="normal" in="SourceGraphic" in2="BackgroundImageFix" result="shape"/>
<feGaussianBlur stdDeviation="0.913723" result="effect1_foregroundBlur_6456_7809"/>
</filter>
<filter id="filter3_f_6456_7809" x="83.0909" y="29.1114" width="13.662" height="20.5265" filterUnits="userSpaceOnUse" color-interpolation-filters="sRGB">
<feFlood flood-opacity="0" result="BackgroundImageFix"/>
<feBlend mode="normal" in="SourceGraphic" in2="BackgroundImageFix" result="shape"/>
<feGaussianBlur stdDeviation="1.37058" result="effect1_foregroundBlur_6456_7809"/>
</filter>
<filter id="filter4_f_6456_7809" x="65.2588" y="13.5088" width="41.4823" height="36.9823" filterUnits="userSpaceOnUse" color-interpolation-filters="sRGB">
<feFlood flood-opacity="0" result="BackgroundImageFix"/>
<feBlend mode="normal" in="SourceGraphic" in2="BackgroundImageFix" result="shape"/>
<feGaussianBlur stdDeviation="1.37058" result="effect1_foregroundBlur_6456_7809"/>
</filter>
<linearGradient id="paint0_linear_6456_7809" x1="179.613" y1="-25.4038" x2="67.4015" y2="142.715" gradientUnits="userSpaceOnUse">
<stop stop-color="white" stop-opacity="0"/>
<stop offset="0.5159" stop-color="white"/>
</linearGradient>
<linearGradient id="paint1_linear_6456_7809" x1="100.999" y1="18.422" x2="23.0306" y2="72.0914" gradientUnits="userSpaceOnUse">
<stop stop-color="white"/>
<stop offset="1" stop-color="white" stop-opacity="0"/>
</linearGradient>
<linearGradient id="paint2_linear_6456_7809" x1="92.5195" y1="24.0425" x2="102.15" y2="27.2107" gradientUnits="userSpaceOnUse">
<stop stop-color="#2DA1FF"/>
<stop offset="1" stop-color="#0B82E4"/>
</linearGradient>
<linearGradient id="paint3_linear_6456_7809" x1="76.8323" y1="21.9934" x2="72.6946" y2="28.8133" gradientUnits="userSpaceOnUse">
<stop stop-color="#1389E9"/>
<stop offset="1" stop-color="#51AEFA"/>
</linearGradient>
<linearGradient id="paint4_linear_6456_7809" x1="80.2547" y1="23.856" x2="94.2723" y2="31.6426" gradientUnits="userSpaceOnUse">
<stop offset="0.0143421" stop-color="#178BEA"/>
<stop offset="1" stop-color="#67B7F9"/>
</linearGradient>
<linearGradient id="paint5_linear_6456_7809" x1="94.7549" y1="32.0237" x2="83.699" y2="44.8351" gradientUnits="userSpaceOnUse">
<stop stop-color="#1389E9"/>
<stop offset="1" stop-color="#54ABF2"/>
</linearGradient>
<linearGradient id="paint6_linear_6456_7809" x1="85.0283" y1="23.8887" x2="85.0283" y2="31.49" gradientUnits="userSpaceOnUse">
<stop stop-color="white"/>
<stop offset="1" stop-color="white" stop-opacity="0.5"/>
</linearGradient>
<linearGradient id="paint7_linear_6456_7809" x1="75.1992" y1="21.2637" x2="75.1992" y2="29.2996" gradientUnits="userSpaceOnUse">
<stop stop-color="white"/>
<stop offset="1" stop-color="white" stop-opacity="0.5"/>
</linearGradient>
<linearGradient id="paint8_linear_6456_7809" x1="83.1865" y1="31.3765" x2="83.1865" y2="43.1744" gradientUnits="userSpaceOnUse">
<stop stop-color="white"/>
<stop offset="1" stop-color="white" stop-opacity="0.3"/>
</linearGradient>
<linearGradient id="paint9_linear_6456_7809" x1="77.3502" y1="28.228" x2="77.3502" y2="43.8737" gradientUnits="userSpaceOnUse">
<stop stop-color="white"/>
<stop offset="1" stop-color="white" stop-opacity="0.3"/>
</linearGradient>
<linearGradient id="paint10_linear_6456_7809" x1="86" y1="16.25" x2="86" y2="47.75" gradientUnits="userSpaceOnUse">
<stop offset="0.163618" stop-color="white"/>
<stop offset="0.453182" stop-color="white" stop-opacity="0"/>
</linearGradient>
</defs>
</svg>
